<svg width="229" height="228" viewBox="0 0 229 228" fill="none" xmlns="http://www.w3.org/2000/svg">
<path d="M73.7285 130.342L69.2785 126.842C70.1452 126.425 71.1785 125.833 72.3785 125.067C73.5785 124.3 74.8118 123.392 76.0785 122.342C77.3452 121.275 78.5285 120.075 79.6285 118.742C80.7285 117.408 81.6202 115.958 82.3035 114.392C82.9868 112.825 83.3285 111.158 83.3285 109.392L85.1285 111.592C84.2619 113.008 83.0869 114.167 81.6035 115.067C80.1368 115.95 78.2285 116.392 75.8785 116.392C73.9285 116.392 72.1785 115.942 70.6285 115.042C69.0952 114.142 67.8785 112.9 66.9785 111.317C66.0785 109.733 65.6285 107.908 65.6285 105.842C65.6285 103.625 66.0952 101.675 67.0285 99.9918C67.9618 98.3085 69.2868 97.0001 71.0035 96.0668C72.7368 95.1168 74.7785 94.6418 77.1285 94.6418C79.5618 94.6418 81.6868 95.1835 83.5035 96.2668C85.3202 97.3501 86.7285 98.8751 87.7285 100.842C88.7285 102.792 89.2285 105.075 89.2285 107.692C89.2285 110.408 88.7452 112.958 87.7785 115.342C86.8285 117.708 85.5785 119.867 84.0285 121.817C82.4952 123.75 80.8202 125.442 79.0035 126.892C77.2035 128.325 75.4452 129.475 73.7285 130.342ZM77.0285 110.892C78.6285 110.892 79.9452 110.392 80.9785 109.392C82.0118 108.375 82.5285 107.108 82.5285 105.592C82.5285 104.058 82.0118 102.767 80.9785 101.717C79.9452 100.667 78.6285 100.142 77.0285 100.142C75.4618 100.142 74.1535 100.667 73.1035 101.717C72.0535 102.767 71.5285 104.058 71.5285 105.592C71.5285 107.108 72.0535 108.375 73.1035 109.392C74.1535 110.392 75.4618 110.892 77.0285 110.892ZM103.355 130.992C101.438 130.992 99.6797 130.742 98.0797 130.242C96.4797 129.742 95.038 129.058 93.7547 128.192L95.2547 122.392C96.488 123.158 97.738 123.783 99.0047 124.267C100.288 124.75 101.705 124.992 103.255 124.992C105.155 124.992 106.663 124.492 107.78 123.492C108.896 122.492 109.455 121.142 109.455 119.442C109.455 117.608 108.821 116.175 107.555 115.142C106.288 114.108 104.455 113.592 102.055 113.592C100.955 113.592 99.8547 113.658 98.7547 113.792C97.6714 113.925 96.588 114.092 95.5047 114.292L97.7547 95.3418H114.255L113.855 101.542H102.555L101.355 111.242L98.9547 109.042C99.7547 108.808 100.588 108.633 101.455 108.517C102.338 108.4 103.288 108.342 104.305 108.342C106.538 108.342 108.505 108.783 110.205 109.667C111.921 110.533 113.255 111.8 114.205 113.467C115.171 115.117 115.655 117.108 115.655 119.442C115.655 121.842 115.121 123.908 114.055 125.642C113.005 127.358 111.555 128.683 109.705 129.617C107.855 130.533 105.738 130.992 103.355 130.992ZM129.01 114.642C127.193 114.642 125.643 114.208 124.36 113.342C123.093 112.458 122.127 111.258 121.46 109.742C120.793 108.208 120.46 106.458 120.46 104.492C120.46 101.508 121.243 99.1251 122.81 97.3418C124.377 95.5418 126.443 94.6418 129.01 94.6418C131.593 94.6418 133.66 95.5418 135.21 97.3418C136.777 99.1251 137.56 101.508 137.56 104.492C137.56 106.458 137.218 108.208 136.535 109.742C135.868 111.258 134.893 112.458 133.61 113.342C132.343 114.208 130.81 114.642 129.01 114.642ZM129.01 110.292C130.11 110.292 130.96 109.792 131.56 108.792C132.16 107.775 132.46 106.342 132.46 104.492C132.46 102.642 132.143 101.267 131.51 100.367C130.893 99.4501 130.06 98.9918 129.01 98.9918C127.96 98.9918 127.118 99.4501 126.485 100.367C125.868 101.267 125.56 102.642 125.56 104.492C125.56 106.342 125.843 107.775 126.41 108.792C126.977 109.792 127.843 110.292 129.01 110.292ZM128.36 130.342L149.01 95.3418H153.96L133.36 130.342H128.36ZM153.26 131.042C151.443 131.042 149.893 130.608 148.61 129.742C147.343 128.858 146.377 127.658 145.71 126.142C145.043 124.608 144.71 122.858 144.71 120.892C144.71 117.908 145.493 115.525 147.06 113.742C148.627 111.942 150.693 111.042 153.26 111.042C155.843 111.042 157.91 111.942 159.46 113.742C161.027 115.525 161.81 117.908 161.81 120.892C161.81 122.858 161.468 124.608 160.785 126.142C160.118 127.658 159.143 128.858 157.86 129.742C156.593 130.608 155.06 131.042 153.26 131.042ZM153.26 126.692C154.36 126.692 155.21 126.192 155.81 125.192C156.41 124.175 156.71 122.742 156.71 120.892C156.71 119.042 156.393 117.667 155.76 116.767C155.143 115.85 154.31 115.392 153.26 115.392C152.21 115.392 151.368 115.85 150.735 116.767C150.118 117.667 149.81 119.042 149.81 120.892C149.81 122.742 150.093 124.175 150.66 125.192C151.227 126.192 152.093 126.692 153.26 126.692Z" fill="#181818"/>
<path d="M90.3507 24.1344C139.928 10.8502 190.887 40.2716 204.171 89.8488C217.456 139.426 188.034 190.385 138.457 203.67C88.8798 216.954 37.9205 187.532 24.6363 137.955C11.3521 88.3779 40.7735 37.4186 90.3507 24.1344ZM137.044 198.398C183.71 185.894 211.404 137.927 198.9 91.2614C186.396 44.5957 138.429 16.9022 91.7633 29.4062C45.0976 41.9103 17.4041 89.8768 29.9081 136.543C42.4121 183.208 90.3787 210.902 137.044 198.398Z" fill="#DAAE3C"/>
<path d="M109.165 23.8489C109.077 22.3444 110.226 21.0495 111.733 21.0061C133.517 20.3793 154.864 27.4308 172.01 40.9756C189.872 55.085 201.934 75.2591 205.91 97.6715C209.885 120.084 205.497 143.176 193.577 162.568C181.658 181.959 163.036 196.302 141.244 202.876C119.451 209.45 96.0043 207.797 75.3495 198.232C54.6948 188.666 38.2688 171.853 29.1871 150.981C20.1053 130.109 18.9994 106.63 26.0791 84.9968C32.8755 64.2294 46.7615 46.5497 65.2585 35.0254C66.5377 34.2285 68.2113 34.6718 68.9703 35.9738C69.7294 37.2758 69.2864 38.9432 68.0087 39.7425C50.6659 50.5919 37.6467 67.1975 31.2662 86.6943C24.6023 107.057 25.6432 129.157 34.1916 148.804C42.74 168.45 58.2013 184.276 77.6431 193.279C97.0848 202.283 119.155 203.839 139.667 197.651C160.18 191.463 177.708 177.963 188.928 159.71C200.147 141.457 204.278 119.721 200.536 98.6246C196.794 77.5285 185.44 58.5392 168.627 45.2583C152.529 32.5422 132.499 25.9062 112.05 26.4572C110.543 26.4978 109.252 25.3535 109.165 23.8489Z" fill="white"/>
<g filter="url(#filter0_d_3372_474)">
<circle cx="74.3779" cy="31.8281" r="15" fill="#181818"/>
<circle cx="74.3779" cy="31.8281" r="12.5" stroke="white" stroke-width="5"/>
</g>
<defs>
<filter id="filter0_d_3372_474" x="51.3779" y="16.8281" width="46" height="46" filterUnits="userSpaceOnUse" color-interpolation-filters="sRGB">
<feFlood flood-opacity="0" result="BackgroundImageFix"/>
<feColorMatrix in="SourceAlpha" type="matrix" values="0 0 0 0 0 0 0 0 0 0 0 0 0 0 0 0 0 0 127 0" result="hardAlpha"/>
<feOffset dy="8"/>
<feGaussianBlur stdDeviation="4"/>
<feComposite in2="hardAlpha" operator="out"/>
<feColorMatrix type="matrix" values="0 0 0 0 0.9625 0 0 0 0 0.919283 0 0 0 0 0.810104 0 0 0 1 0"/>
<feBlend mode="multiply" in2="BackgroundImageFix" result="effect1_dropShadow_3372_474"/>
<feBlend mode="normal" in="SourceGraphic" in2="effect1_dropShadow_3372_474" result="shape"/>
</filter>
</defs>
</svg>
